<?xml version="1.0" encoding="utf-8"?>
<!-- Generator: Adobe Illustrator 18.1.1, SVG Export Plug-In . SVG Version: 6.00 Build 0)  -->
<svg version="1.1" id="Слой_1" xmlns="http://www.w3.org/2000/svg" xmlns:xlink="http://www.w3.org/1999/xlink" x="0px" y="0px"
	 viewBox="0 0 121 118" enable-background="new 0 0 121 118" xml:space="preserve">
<g>
	<path fill-rule="evenodd" clip-rule="evenodd" fill="#111413" d="M60.5,0.1c-33.3,0-60.4,27-60.4,60.4c0,26.7,17.3,49.3,41.3,57.3
		c3,0.6,4.1-1.3,4.1-2.9c0-1.4-0.1-6.2-0.1-11.2c-16.8,3.7-20.3-7.1-20.3-7.1c-2.7-7-6.7-8.8-6.7-8.8c-5.5-3.7,0.4-3.7,0.4-3.7
		c6.1,0.4,9.3,6.2,9.3,6.2c5.4,9.2,14.1,6.6,17.6,5c0.5-3.9,2.1-6.6,3.8-8.1C36.1,85.7,22,80.5,22,57.3c0-6.6,2.4-12,6.2-16.2
		c-0.6-1.5-2.7-7.7,0.6-16c0,0,5.1-1.6,16.6,6.2c4.8-1.3,10-2,15.1-2c5.1,0,10.3,0.7,15.1,2c11.5-7.8,16.6-6.2,16.6-6.2
		c3.3,8.3,1.2,14.5,0.6,16c3.9,4.2,6.2,9.6,6.2,16.2c0,23.2-14.1,28.3-27.6,29.8c2.2,1.9,4.1,5.5,4.1,11.2c0,8.1-0.1,14.6-0.1,16.6
		c0,1.6,1.1,3.5,4.1,2.9c24-8,41.3-30.6,41.3-57.3C120.9,27.1,93.9,0.1,60.5,0.1z"/>
	<path fill="#111413" d="M23,86.8c-0.1,0.3-0.6,0.4-1,0.2c-0.4-0.2-0.7-0.6-0.5-0.9c0.1-0.3,0.6-0.4,1-0.2
		C22.9,86.1,23.1,86.5,23,86.8L23,86.8z M22.2,86.3"/>
	<path fill="#111413" d="M25.4,89.5c-0.3,0.3-0.9,0.1-1.2-0.3c-0.4-0.4-0.5-1-0.2-1.3c0.3-0.3,0.8-0.1,1.2,0.3
		C25.7,88.7,25.7,89.3,25.4,89.5L25.4,89.5z M24.9,88.9"/>
	<path fill="#111413" d="M27.8,93c-0.4,0.3-1,0-1.3-0.5c-0.4-0.5-0.4-1.2,0-1.4c0.4-0.3,1,0,1.3,0.5C28.2,92.1,28.2,92.7,27.8,93
		L27.8,93z M27.8,93"/>
	<path fill="#111413" d="M31.1,96.4c-0.3,0.4-1,0.3-1.6-0.2c-0.5-0.5-0.7-1.2-0.3-1.5c0.3-0.4,1-0.3,1.6,0.2
		C31.3,95.3,31.4,96,31.1,96.4L31.1,96.4z M31.1,96.4"/>
	<path fill="#111413" d="M35.6,98.3c-0.1,0.5-0.8,0.7-1.5,0.5c-0.7-0.2-1.1-0.8-1-1.2c0.1-0.5,0.8-0.7,1.5-0.5
		C35.3,97.3,35.7,97.8,35.6,98.3L35.6,98.3z M35.6,98.3"/>
	<path fill="#111413" d="M40.5,98.7c0,0.5-0.6,0.9-1.3,0.9c-0.7,0-1.3-0.4-1.3-0.9c0-0.5,0.6-0.9,1.3-0.9
		C39.9,97.8,40.5,98.2,40.5,98.7L40.5,98.7z M40.5,98.7"/>
	<path fill="#111413" d="M45.1,97.9c0.1,0.5-0.4,1-1.1,1.1c-0.7,0.1-1.3-0.2-1.4-0.7c-0.1-0.5,0.4-1,1.1-1.1
		C44.4,97.1,45,97.4,45.1,97.9L45.1,97.9z M45.1,97.9"/>
</g>
</svg>
